name analog
datacolumns 19
datarows 43
range 0.498 0.519
endheader
time	ground_force_vx	ground_force_vy	ground_force_vz	ground_force_px	ground_force_py	ground_force_pz	l_ground_force_vx	l_ground_force_vy	l_ground_force_vz	l_ground_force_px	l_ground_force_py	l_ground_force_pz	ground_torque_x	ground_torque_y	ground_torque_z	l_ground_torque_x	l_ground_torque_y	l_ground_torque_z
0.498	-0.0	-0.0	-0.0	-14.760207176208496	80.54541015625	-456.5815734863281	-11.015377044677734	-99.14039611816406	-522.489013671875	-34.998592376708984	16.333581924438477	75.88541412353516	-0.0	-0.0	-0.0	48138.14453125	-36548.62890625	2975.33642578125
0.4985	-0.0	-0.0	-0.0	-13.53154754638672	78.86016845703125	-451.2360534667969	-6.975149154663086	-97.01727294921876	-519.3143310546875	-35.28732681274414	16.36212921142578	74.9124526977539	-0.0	-0.0	-0.0	48555.31640625	-37560.7890625	3578.716064453125
0.499	-0.0	-0.0	-0.0	-12.627321243286133	76.64408874511719	-446.3071899414063	-3.140944480895996	-94.54432678222656	-515.4270629882812	-35.58409118652344	16.48493766784668	76.3165054321289	-0.0	-0.0	-0.0	48571.640625	-38740.5078125	4234.61669921875
0.4995	-0.0	-0.0	-0.0	-11.370381355285645	75.03988647460938	-443.1603698730469	0.8223176598548889	-92.30831909179688	-511.3963012695313	-35.494598388671875	16.02729034423828	75.02366638183594	-0.0	-0.0	-0.0	48796.171875	-39870.82421875	5022.69189453125
0.5	-0.0	-0.0	-0.0	-10.299931526184082	73.26519775390625	-437.9930114746094	4.7655839920043945	-90.54206848144533	-509.2042236328125	-34.88116455078125	15.778143882751465	78.05157470703125	-0.0	-0.0	-0.0	49011.90234375	-40879.90234375	5601.50439453125
0.5005000000000001	-0.0	-0.0	-0.0	-9.04321002960205	71.64532470703125	-435.05615234375	8.285979270935059	-88.8158950805664	-504.6524353027344	-35.56356430053711	16.091684341430664	75.83566284179688	-0.0	-0.0	-0.0	48892.34375	-41458.8984375	6267.96630859375
0.501	-0.0	-0.0	-0.0	-8.214986801147461	70.45378112792969	-432.0801696777344	11.301881790161133	-87.22637176513672	-501.1920471191406	-35.38457107543945	16.256359100341797	76.10562896728516	-0.0	-0.0	-0.0	48852.90234375	-42202.20703125	6712.84521484375
0.5015000000000001	-0.0	-0.0	-0.0	-6.42315673828125	68.44469451904297	-427.9140625	13.164545059204102	-86.41902923583984	-495.5762634277344	-35.239295959472656	16.325796127319336	76.26596069335938	-0.0	-0.0	-0.0	48925.04296875	-42977.98046875	7188.9873046875
0.502	-0.0	-0.0	-0.0	-4.83040714263916	67.01126098632812	-425.5231628417969	15.204792976379396	-85.14210510253906	-491.3362731933594	-35.45338439941406	16.35381317138672	75.07518005371094	-0.0	-0.0	-0.0	48913.49609375	-43768.88671875	7487.39794921875
0.5025000000000001	-0.0	-0.0	-0.0	-3.581649780273437	65.42768096923828	-422.0212707519531	17.019441604614258	-83.49722290039062	-488.245361328125	-35.21892547607422	16.035293579101562	76.1566162109375	-0.0	-0.0	-0.0	48875.38671875	-44206.21875	7851.8662109375
0.503	-0.0	-0.0	-0.0	-3.6236863136291504	64.72207641601562	-418.2463073730469	19.189083099365234	-81.98281860351562	-485.32073974609375	-35.3291130065918	16.332998275756836	76.04833984375	-0.0	-0.0	-0.0	49115.2890625	-45147.48046875	8091.107421875
0.5035000000000001	-0.0	-0.0	-0.0	-2.531923770904541	63.44032669067383	-414.414794921875	22.014497756958008	-79.82865142822266	-482.9570007324219	-35.42555236816406	16.03534698486328	76.45378875732422	-0.0	-0.0	-0.0	49339.71875	-46307.734375	8513.716796875
0.504	-0.0	-0.0	-0.0	-2.834158420562744	62.10333251953125	-410.6121826171875	23.80188751220703	-77.51915740966797	-480.9426879882813	-35.583797454833984	16.194534301757812	75.913330078125	-0.0	-0.0	-0.0	49479.4140625	-47193.67578125	8777.7939453125
0.5045000000000001	-0.0	-0.0	-0.0	-2.566488981246948	60.51954650878906	-406.1287231445313	26.21058654785156	-75.94987487792969	-480.9697570800781	-35.356807708740234	16.374473571777344	75.93885040283203	-0.0	-0.0	-0.0	49905.7265625	-48241.81640625	9030.9111328125
0.505	-0.0	-0.0	-0.0	-1.9352627992630005	58.2571907043457	-401.4840087890625	28.46250534057617	-74.44840240478516	-480.7012023925781	-35.5150146484375	16.22202491760254	75.31822967529297	-0.0	-0.0	-0.0	50929.5625	-49759.61328125	9222.2822265625
0.5055000000000001	-0.0	-0.0	-0.0	-1.5372306108474731	55.8715705871582	-395.6432800292969	30.400110244750977	-72.14554595947266	-480.5940856933594	-35.5150146484375	16.08370018005371	76.2634048461914	-0.0	-0.0	-0.0	51391.0703125	-50932.23828125	9529.9111328125
0.506	-0.0	-0.0	-0.0	-1.406678318977356	54.49357223510742	-391.0521240234375	31.04877471923828	-70.93629455566406	-478.7677612304688	-35.2050666809082	16.470802307128906	74.97261047363281	-0.0	-0.0	-0.0	51729.30859375	-51657.296875	9761.0205078125
0.5065000000000001	-0.0	-0.0	-0.0	-0.1449626684188842	52.42300033569336	-384.7769470214844	31.581039428710938	-69.48228454589844	-475.5191650390625	-35.33609771728516	16.242660522460938	75.24247741699219	-0.0	-0.0	-0.0	51809.24609375	-52510.46484375	9542.876953125
0.507	-0.0	-0.0	-0.0	0.1639256477355957	51.71011734008789	-381.4590759277344	30.912553787231445	-68.28060913085938	-472.5643310546875	-35.5211296081543	16.305458068847656	75.8634033203125	-0.0	-0.0	-0.0	51822.08984375	-53049.921875	9786.88671875
0.5075000000000001	-0.0	-0.0	-0.0	1.1597366333007812	49.97530746459961	-376.2770385742188	30.238056182861328	-67.09780883789062	-468.2935485839844	-35.297325134277344	16.04158592224121	75.91094970703125	-0.0	-0.0	-0.0	52143.64453125	-53660.68359375	9645.27734375
0.508	-0.0	-0.0	-0.0	2.3045990467071533	48.8731803894043	-371.1685791015625	29.71811294555664	-65.96432495117188	-466.38519287109375	-35.43136978149414	16.125595092773438	75.53675079345703	-0.0	-0.0	-0.0	52019.87109375	-54213.4921875	9706.5302734375
0.5085000000000001	-0.0	-0.0	-0.0	3.5475969314575195	48.03537368774414	-365.7061462402344	29.247892379760746	-64.82215881347656	-462.416015625	-35.37214279174805	16.104564666748047	75.828369140625	-0.0	-0.0	-0.0	52105.78515625	-54541.00390625	9683.7314453125
0.509	-0.0	-0.0	-0.0	5.233227252960205	46.80854415893555	-360.5738830566406	29.32183074951172	-63.83595275878906	-457.6332702636719	-35.509376525878906	16.284503936767578	76.07440185546875	-0.0	-0.0	-0.0	52362.51953125	-55253.7578125	9697.8525390625
0.5095000000000001	-0.0	-0.0	-0.0	6.449669361114502	45.15140914916992	-354.3827209472656	29.67659950256348	-62.70274353027344	-455.0262756347656	-35.188201904296875	15.903512001037598	75.26847839355469	-0.0	-0.0	-0.0	52278.29296875	-55754.69921875	9748.8662109375
0.51	-0.0	-0.0	-0.0	7.514596462249756	43.68368911743164	-349.670166015625	29.87476348876953	-61.48697662353516	-452.3591613769531	-35.13074493408203	16.120235443115234	76.26031494140625	-0.0	-0.0	-0.0	52391.7890625	-56511.79296875	9897.646484375
0.5105000000000001	-0.0	-0.0	-0.0	8.779128074645996	42.064151763916016	-343.4354248046875	30.276660919189453	-60.32371520996094	-448.4744567871094	-35.7149772644043	16.602048873901367	75.88822937011719	-0.0	-0.0	-0.0	52654.81640625	-56907.69140625	10139.2265625
0.511	-0.0	-0.0	-0.0	9.61374568939209	40.009056091308594	-337.9101257324219	30.495662689208984	-59.61183547973633	-446.4828796386719	-35.357181549072266	16.448389053344727	76.87861633300781	-0.0	-0.0	-0.0	53014.12890625	-57508.64453125	10272.0859375
0.5115000000000001	-0.0	-0.0	-0.0	10.274938583374023	38.8765754699707	-332.7577819824219	30.626066207885746	-58.93132019042969	-443.9358215332031	-35.241512298583984	16.284503936767578	74.89811706542969	-0.0	-0.0	-0.0	52873.6796875	-58230.98046875	10321.146484375
0.512	-0.0	-0.0	-0.0	10.82060432434082	38.32607269287109	-328.6868591308594	30.866174697875977	-58.14162063598633	-440.3623962402344	-35.067718505859375	16.057077407836914	75.18661499023438	-0.0	-0.0	-0.0	53087.65625	-58738.671875	10508.25390625
0.5125	-0.0	-0.0	-0.0	10.442584991455078	37.14633560180664	-325.239501953125	30.422771453857425	-57.559906005859375	-438.4323120117188	-35.74106979370117	16.374473571777344	75.6396484375	-0.0	-0.0	-0.0	53003.7578125	-58876.7265625	10490.7333984375
0.513	-0.0	-0.0	-0.0	9.944501876831056	36.27113723754883	-321.58013916015625	30.00516891479492	-56.97248077392578	-434.6543273925781	-35.35725784301758	16.151968002319336	75.78680419921875	-0.0	-0.0	-0.0	53053.91796875	-59506.08984375	10582.9384765625
0.5135	-0.0	-0.0	-0.0	9.561840057373049	36.118900299072266	-315.8910522460937	29.498767852783203	-56.13085174560547	-431.08148193359375	-35.03720474243164	16.4431209564209	75.63932037353516	-0.0	-0.0	-0.0	52884.8125	-59822.49609375	10612.4296875
0.514	-0.0	-0.0	-0.0	8.674562454223633	35.940677642822266	-309.8225402832031	28.137605667114254	-55.58677673339844	-427.8945617675781	-35.42555236816406	16.173173904418945	74.19987487792969	-0.0	-0.0	-0.0	53201.8515625	-60059.25	10492.91796875
0.5145	-0.0	-0.0	-0.0	8.29200267791748	35.87727737426758	-304.0155029296875	27.187530517578125	-54.96164321899414	-424.7155151367188	-35.110225677490234	16.173158645629883	75.52067565917969	-0.0	-0.0	-0.0	53370.02734375	-60400.36328125	10691.4580078125
0.515	-0.0	-0.0	-0.0	8.054586410522461	36.233734130859375	-299.84979248046875	26.139583587646484	-54.78490829467773	-422.1243286132813	-35.472442626953125	16.46444320678711	75.3542709350586	-0.0	-0.0	-0.0	53156.875	-60702.48828125	10795.3486328125
0.5155	-0.0	-0.0	-0.0	7.629647731781006	36.475547790527344	-294.4339904785156	25.72612762451172	-54.010887145996094	-419.84619140625	-35.42555236816406	16.177276611328125	75.8056640625	-0.0	-0.0	-0.0	53360.8046875	-60975.4375	10748.548828125
0.516	-0.0	-0.0	-0.0	7.429885387420654	36.09781646728516	-290.5664978027344	24.99954414367676	-53.65332412719727	-416.98681640625	-35.37882232666016	16.425512313842773	75.55425262451172	-0.0	-0.0	-0.0	53304.36328125	-61512.234375	10859.7783203125
0.5165	-0.0	-0.0	-0.0	7.6590986251831055	35.42727279663086	-287.203125	24.665807723999023	-53.01404571533203	-413.3955078125	-35.31473159790039	16.399980545043945	75.35520935058594	-0.0	-0.0	-0.0	53442.5234375	-61620.2421875	11060.291015625
0.517	-0.0	-0.0	-0.0	7.514990329742432	34.935142517089844	-280.7622985839844	23.81681632995605	-52.53033447265625	-410.7848815917969	-35.03862380981445	15.94615077972412	75.72169494628906	-0.0	-0.0	-0.0	53438.92578125	-61842.3203125	11170.0712890625
0.5175	-0.0	-0.0	-0.0	8.275232315063477	34.15444564819336	-279.18115234375	23.423555374145508	-52.30365753173828	-406.0633544921875	-35.47213363647461	16.21609878540039	75.97389221191406	-0.0	-0.0	-0.0	53187.50390625	-61541.421875	11106.12109375
0.518	-0.0	-0.0	-0.0	8.835658073425293	33.18165588378906	-274.0373840332031	22.528642654418945	-51.35712432861328	-401.509033203125	-35.31465148925781	16.374473571777344	75.4547119140625	-0.0	-0.0	-0.0	52801.83984375	-61531.33984375	11290.796875
0.5185	-0.0	-0.0	-0.0	9.196015357971191	32.083282470703125	-268.8546142578125	22.110225677490234	-51.47039794921875	-398.4361267089844	-35.31461334228516	16.942996978759766	74.55655670166016	-0.0	-0.0	-0.0	52840.3828125	-61413.71484375	11252.42578125
0.519	-0.0	-0.0	-0.0	9.434889793395996	31.34898567199707	-264.1368713378906	21.68798828125	-50.60832977294922	-394.5555114746094	-35.42555236816406	16.374473571777344	76.0589370727539	-0.0	-0.0	-0.0	52510.046875	-61642.87890625	11289.1357421875
